<?xml version="1.0" encoding="utf-8"?>
<!-- Generator: Adobe Illustrator 22.1.0, SVG Export Plug-In . SVG Version: 6.00 Build 0)  -->
<svg version="1.1" id="Capa_1" xmlns="http://www.w3.org/2000/svg" xmlns:xlink="http://www.w3.org/1999/xlink" x="0px" y="0px"
	 viewBox="0 0 1366 768" style="enable-background:new 0 0 1366 768;" xml:space="preserve">
<style type="text/css">
	.st0{fill:#123F4F;}
	.st1{fill:#46B3E5;}
</style>
<rect class="st0" width="1366" height="768"/>
<g>
	<g>
		<g>
			<path class="st1" d="M37.9,0h75.8l37.9,64.7l-37.9,64.7H37.9l-0.3-0.5L0,64.7L37.9,0z M112.6,1.9H39L2.2,64.7L39,127.6h73.6
				l36.8-62.9L112.6,1.9z"/>
			<polygon class="st1" points="1.1,63.8 76.3,63.8 113.9,128.1 112.3,129 75.2,65.7 1.1,65.7 			"/>
			<path class="st1" d="M51.7,23.6h48.1l24.1,41.1l-24.1,41.1H51.7l-0.3-0.5L27.7,64.7L51.7,23.6z M98.7,25.5H52.8l-23,39.2l23,39.2
				h45.9l23-39.2L98.7,25.5z"/>
			<polygon class="st1" points="112.3,0.5 113.9,1.4 76.6,65.2 75,64.3 			"/>
		</g>
		<g>
			<path class="st1" d="M189.7,0h75.8l37.9,64.7l-37.9,64.7h-75.8l-0.3-0.5l-37.6-64.3L189.7,0z M264.4,1.9h-73.6L154,64.7
				l36.8,62.9h73.6l36.8-62.9L264.4,1.9z"/>
			<polygon class="st1" points="152.9,63.8 228.1,63.8 265.7,128.1 264.1,129 227,65.7 152.9,65.7 			"/>
			<path class="st1" d="M203.5,23.6h48.1l24.1,41.1l-24.1,41.1h-48.1l-0.3-0.5l-23.8-40.6L203.5,23.6z M250.5,25.5h-45.9l-23,39.2
				l23,39.2h45.9l23-39.2L250.5,25.5z"/>
			<polygon class="st1" points="264.1,0.5 265.7,1.4 228.4,65.2 226.8,64.3 			"/>
		</g>
		<g>
			<path class="st1" d="M341.5,0h75.8l37.9,64.7l-37.9,64.7h-75.8l-0.3-0.5l-37.6-64.3L341.5,0z M416.2,1.9h-73.6l-36.8,62.9
				l36.8,62.9h73.6L453,64.7L416.2,1.9z"/>
			<polygon class="st1" points="304.7,63.8 379.9,63.8 417.6,128.1 415.9,129 378.8,65.7 304.7,65.7 			"/>
			<path class="st1" d="M355.3,23.6h48.1l24.1,41.1l-24.1,41.1h-48.1l-0.3-0.5l-23.8-40.6L355.3,23.6z M402.4,25.5h-45.9l-23,39.2
				l23,39.2h45.9l23-39.2L402.4,25.5z"/>
			<polygon class="st1" points="415.9,0.5 417.6,1.4 380.2,65.2 378.6,64.3 			"/>
		</g>
		<g>
			<path class="st1" d="M493.3,0h75.8L607,64.7l-37.9,64.7h-75.8L493,129l-37.6-64.3L493.3,0z M568,1.9h-73.6l-36.8,62.9l36.8,62.9
				H568l36.8-62.9L568,1.9z"/>
			<polygon class="st1" points="456.5,63.8 531.7,63.8 569.4,128.1 567.7,129 530.6,65.7 456.5,65.7 			"/>
			<path class="st1" d="M507.1,23.6h48.1l24.1,41.1l-24.1,41.1h-48.1l-0.3-0.5l-23.8-40.6L507.1,23.6z M554.2,25.5h-45.9l-23,39.2
				l23,39.2h45.9l23-39.2L554.2,25.5z"/>
			<polygon class="st1" points="567.7,0.5 569.4,1.4 532,65.2 530.4,64.3 			"/>
		</g>
		<g>
			<path class="st1" d="M645.1,0h75.8l37.9,64.7l-37.9,64.7h-75.8l-0.3-0.5l-37.6-64.3L645.1,0z M719.8,1.9h-73.6l-36.8,62.9
				l36.8,62.9h73.6l36.8-62.9L719.8,1.9z"/>
			<polygon class="st1" points="608.3,63.8 683.5,63.8 721.2,128.1 719.5,129 682.5,65.7 608.3,65.7 			"/>
			<path class="st1" d="M658.9,23.6h48.1l24.1,41.1l-24.1,41.1h-48.1l-0.3-0.5l-23.8-40.6L658.9,23.6z M706,25.5H660l-23,39.2
				l23,39.2H706l23-39.2L706,25.5z"/>
			<polygon class="st1" points="719.5,0.5 721.2,1.4 683.8,65.2 682.2,64.3 			"/>
		</g>
		<g>
			<path class="st1" d="M796.9,0h75.8l37.9,64.7l-37.9,64.7h-75.8l-0.3-0.5L759,64.7L796.9,0z M871.6,1.9H798l-36.8,62.9l36.8,62.9
				h73.6l36.8-62.9L871.6,1.9z"/>
			<polygon class="st1" points="760.1,63.8 835.4,63.8 873,128.1 871.3,129 834.3,65.7 760.1,65.7 			"/>
			<path class="st1" d="M810.7,23.6h48.1l24.1,41.1l-24.1,41.1h-48.1l-0.3-0.5l-23.8-40.6L810.7,23.6z M857.8,25.5h-45.9l-23,39.2
				l23,39.2h45.9l23-39.2L857.8,25.5z"/>
			<polygon class="st1" points="871.3,0.5 873,1.4 835.6,65.2 834,64.3 			"/>
		</g>
		<g>
			<path class="st1" d="M948.7,0h75.8l37.9,64.7l-37.9,64.7h-75.8l-0.3-0.5l-37.6-64.3L948.7,0z M1023.4,1.9h-73.6L913,64.7
				l36.8,62.9h73.6l36.8-62.9L1023.4,1.9z"/>
			<polygon class="st1" points="911.9,63.8 987.2,63.8 1024.8,128.1 1023.1,129 986.1,65.7 911.9,65.7 			"/>
			<path class="st1" d="M962.6,23.6h48.1l24.1,41.1l-24.1,41.1h-48.1l-0.3-0.5l-23.8-40.6L962.6,23.6z M1009.6,25.5h-45.9l-23,39.2
				l23,39.2h45.9l23-39.2L1009.6,25.5z"/>
			<polygon class="st1" points="1023.1,0.5 1024.8,1.4 987.4,65.2 985.8,64.3 			"/>
		</g>
		<g>
			<path class="st1" d="M1100.5,0h75.8l37.9,64.7l-37.9,64.7h-75.8l-0.3-0.5l-37.6-64.3L1100.5,0z M1175.2,1.9h-73.6l-36.8,62.9
				l36.8,62.9h73.6l36.8-62.9L1175.2,1.9z"/>
			<polygon class="st1" points="1063.7,63.8 1139,63.8 1176.6,128.1 1174.9,129 1137.9,65.7 1063.7,65.7 			"/>
			<path class="st1" d="M1114.4,23.6h48.1l24.1,41.1l-24.1,41.1h-48.1l-0.3-0.5l-23.8-40.6L1114.4,23.6z M1161.4,25.5h-45.9
				l-23,39.2l23,39.2h45.9l23-39.2L1161.4,25.5z"/>
			<polygon class="st1" points="1174.9,0.5 1176.6,1.4 1139.2,65.2 1137.6,64.3 			"/>
		</g>
		<g>
			<path class="st1" d="M1252.3,0h75.8l37.9,64.7l-37.9,64.7h-75.8l-0.3-0.5l-37.6-64.3L1252.3,0z M1327,1.9h-73.6l-36.8,62.9
				l36.8,62.9h73.6l36.8-62.9L1327,1.9z"/>
			<polygon class="st1" points="1215.5,63.8 1290.8,63.8 1328.4,128.1 1326.7,129 1289.7,65.7 1215.5,65.7 			"/>
			<path class="st1" d="M1266.2,23.6h48.1l24.1,41.1l-24.1,41.1h-48.1l-0.3-0.5l-23.8-40.6L1266.2,23.6z M1313.2,25.5h-45.9
				l-23,39.2l23,39.2h45.9l23-39.2L1313.2,25.5z"/>
			<polygon class="st1" points="1326.7,0.5 1328.4,1.4 1291,65.2 1289.4,64.3 			"/>
		</g>
		<g>
			<path class="st1" d="M37.9,127.7h75.8l37.9,64.7l-37.9,64.7H37.9l-0.3-0.5L0,192.4L37.9,127.7z M112.6,129.6H39L2.2,192.4
				L39,255.3h73.6l36.8-62.9L112.6,129.6z"/>
			<polygon class="st1" points="1.1,191.5 76.3,191.5 113.9,255.8 112.3,256.7 75.2,193.4 1.1,193.4 			"/>
			<path class="st1" d="M51.7,151.3h48.1l24.1,41.1l-24.1,41.1H51.7l-0.3-0.5l-23.8-40.6L51.7,151.3z M98.7,153.2H52.8l-23,39.2
				l23,39.2h45.9l23-39.2L98.7,153.2z"/>
			<polygon class="st1" points="112.3,128.2 113.9,129.1 76.6,192.9 75,192 			"/>
		</g>
		<g>
			<path class="st1" d="M189.7,127.7h75.8l37.9,64.7l-37.9,64.7h-75.8l-0.3-0.5l-37.6-64.3L189.7,127.7z M264.4,129.6h-73.6
				L154,192.4l36.8,62.9h73.6l36.8-62.9L264.4,129.6z"/>
			<polygon class="st1" points="152.9,191.5 228.1,191.5 265.7,255.8 264.1,256.7 227,193.4 152.9,193.4 			"/>
			<path class="st1" d="M203.5,151.3h48.1l24.1,41.1l-24.1,41.1h-48.1l-0.3-0.5l-23.8-40.6L203.5,151.3z M250.5,153.2h-45.9
				l-23,39.2l23,39.2h45.9l23-39.2L250.5,153.2z"/>
			<polygon class="st1" points="264.1,128.2 265.7,129.1 228.4,192.9 226.8,192 			"/>
		</g>
		<g>
			<path class="st1" d="M341.5,127.7h75.8l37.9,64.7l-37.9,64.7h-75.8l-0.3-0.5l-37.6-64.3L341.5,127.7z M416.2,129.6h-73.6
				l-36.8,62.9l36.8,62.9h73.6l36.8-62.9L416.2,129.6z"/>
			<polygon class="st1" points="304.7,191.5 379.9,191.5 417.6,255.8 415.9,256.7 378.8,193.4 304.7,193.4 			"/>
			<path class="st1" d="M355.3,151.3h48.1l24.1,41.1l-24.1,41.1h-48.1l-0.3-0.5l-23.8-40.6L355.3,151.3z M402.4,153.2h-45.9
				l-23,39.2l23,39.2h45.9l23-39.2L402.4,153.2z"/>
			<polygon class="st1" points="415.9,128.2 417.6,129.1 380.2,192.9 378.6,192 			"/>
		</g>
		<g>
			<path class="st1" d="M493.3,127.7h75.8l37.9,64.7l-37.9,64.7h-75.8l-0.3-0.5l-37.6-64.3L493.3,127.7z M568,129.6h-73.6
				l-36.8,62.9l36.8,62.9H568l36.8-62.9L568,129.6z"/>
			<polygon class="st1" points="456.5,191.5 531.7,191.5 569.4,255.8 567.7,256.7 530.6,193.4 456.5,193.4 			"/>
			<path class="st1" d="M507.1,151.3h48.1l24.1,41.1l-24.1,41.1h-48.1l-0.3-0.5l-23.8-40.6L507.1,151.3z M554.2,153.2h-45.9
				l-23,39.2l23,39.2h45.9l23-39.2L554.2,153.2z"/>
			<polygon class="st1" points="567.7,128.2 569.4,129.1 532,192.9 530.4,192 			"/>
		</g>
		<g>
			<path class="st1" d="M645.1,127.7h75.8l37.9,64.7l-37.9,64.7h-75.8l-0.3-0.5l-37.6-64.3L645.1,127.7z M719.8,129.6h-73.6
				l-36.8,62.9l36.8,62.9h73.6l36.8-62.9L719.8,129.6z"/>
			<polygon class="st1" points="608.3,191.5 683.5,191.5 721.2,255.8 719.5,256.7 682.5,193.4 608.3,193.4 			"/>
			<path class="st1" d="M658.9,151.3h48.1l24.1,41.1l-24.1,41.1h-48.1l-0.3-0.5l-23.8-40.6L658.9,151.3z M706,153.2H660l-23,39.2
				l23,39.2H706l23-39.2L706,153.2z"/>
			<polygon class="st1" points="719.5,128.2 721.2,129.1 683.8,192.9 682.2,192 			"/>
		</g>
		<g>
			<path class="st1" d="M796.9,127.7h75.8l37.9,64.7l-37.9,64.7h-75.8l-0.3-0.5L759,192.4L796.9,127.7z M871.6,129.6H798l-36.8,62.9
				l36.8,62.9h73.6l36.8-62.9L871.6,129.6z"/>
			<polygon class="st1" points="760.1,191.5 835.4,191.5 873,255.8 871.3,256.7 834.3,193.4 760.1,193.4 			"/>
			<path class="st1" d="M810.7,151.3h48.1l24.1,41.1l-24.1,41.1h-48.1l-0.3-0.5l-23.8-40.6L810.7,151.3z M857.8,153.2h-45.9
				l-23,39.2l23,39.2h45.9l23-39.2L857.8,153.2z"/>
			<polygon class="st1" points="871.3,128.2 873,129.1 835.6,192.9 834,192 			"/>
		</g>
		<g>
			<path class="st1" d="M948.7,127.7h75.8l37.9,64.7l-37.9,64.7h-75.8l-0.3-0.5l-37.6-64.3L948.7,127.7z M1023.4,129.6h-73.6
				L913,192.4l36.8,62.9h73.6l36.8-62.9L1023.4,129.6z"/>
			<polygon class="st1" points="911.9,191.5 987.2,191.5 1024.8,255.8 1023.1,256.7 986.1,193.4 911.9,193.4 			"/>
			<path class="st1" d="M962.6,151.3h48.1l24.1,41.1l-24.1,41.1h-48.1l-0.3-0.5l-23.8-40.6L962.6,151.3z M1009.6,153.2h-45.9
				l-23,39.2l23,39.2h45.9l23-39.2L1009.6,153.2z"/>
			<polygon class="st1" points="1023.1,128.2 1024.8,129.1 987.4,192.9 985.8,192 			"/>
		</g>
		<g>
			<path class="st1" d="M1100.5,127.7h75.8l37.9,64.7l-37.9,64.7h-75.8l-0.3-0.5l-37.6-64.3L1100.5,127.7z M1175.2,129.6h-73.6
				l-36.8,62.9l36.8,62.9h73.6l36.8-62.9L1175.2,129.6z"/>
			<polygon class="st1" points="1063.7,191.5 1139,191.5 1176.6,255.8 1174.9,256.7 1137.9,193.4 1063.7,193.4 			"/>
			<path class="st1" d="M1114.4,151.3h48.1l24.1,41.1l-24.1,41.1h-48.1l-0.3-0.5l-23.8-40.6L1114.4,151.3z M1161.4,153.2h-45.9
				l-23,39.2l23,39.2h45.9l23-39.2L1161.4,153.2z"/>
			<polygon class="st1" points="1174.9,128.2 1176.6,129.1 1139.2,192.9 1137.6,192 			"/>
		</g>
		<g>
			<path class="st1" d="M1252.3,127.7h75.8l37.9,64.7l-37.9,64.7h-75.8l-0.3-0.5l-37.6-64.3L1252.3,127.7z M1327,129.6h-73.6
				l-36.8,62.9l36.8,62.9h73.6l36.8-62.9L1327,129.6z"/>
			<polygon class="st1" points="1215.5,191.5 1290.8,191.5 1328.4,255.8 1326.7,256.7 1289.7,193.4 1215.5,193.4 			"/>
			<path class="st1" d="M1266.2,151.3h48.1l24.1,41.1l-24.1,41.1h-48.1l-0.3-0.5l-23.8-40.6L1266.2,151.3z M1313.2,153.2h-45.9
				l-23,39.2l23,39.2h45.9l23-39.2L1313.2,153.2z"/>
			<polygon class="st1" points="1326.7,128.2 1328.4,129.1 1291,192.9 1289.4,192 			"/>
		</g>
		<g>
			<path class="st1" d="M37.9,255.4h75.8l37.9,64.7l-37.9,64.7H37.9l-0.3-0.5L0,320.1L37.9,255.4z M112.6,257.3H39L2.2,320.1L39,383
				h73.6l36.8-62.9L112.6,257.3z"/>
			<polygon class="st1" points="1.1,319.2 76.3,319.2 113.9,383.5 112.3,384.4 75.2,321.1 1.1,321.1 			"/>
			<path class="st1" d="M51.7,279h48.1l24.1,41.1l-24.1,41.1H51.7l-0.3-0.5l-23.8-40.6L51.7,279z M98.7,280.9H52.8l-23,39.2l23,39.2
				h45.9l23-39.2L98.7,280.9z"/>
			<polygon class="st1" points="112.3,255.9 113.9,256.8 76.6,320.6 75,319.7 			"/>
		</g>
		<g>
			<path class="st1" d="M189.7,255.4h75.8l37.9,64.7l-37.9,64.7h-75.8l-0.3-0.5l-37.6-64.3L189.7,255.4z M264.4,257.3h-73.6
				L154,320.1l36.8,62.9h73.6l36.8-62.9L264.4,257.3z"/>
			<polygon class="st1" points="152.9,319.2 228.1,319.2 265.7,383.5 264.1,384.4 227,321.1 152.9,321.1 			"/>
			<path class="st1" d="M203.5,279h48.1l24.1,41.1l-24.1,41.1h-48.1l-0.3-0.5l-23.8-40.6L203.5,279z M250.5,280.9h-45.9l-23,39.2
				l23,39.2h45.9l23-39.2L250.5,280.9z"/>
			<polygon class="st1" points="264.1,255.9 265.7,256.8 228.4,320.6 226.8,319.7 			"/>
		</g>
		<g>
			<path class="st1" d="M341.5,255.4h75.8l37.9,64.7l-37.9,64.7h-75.8l-0.3-0.5l-37.6-64.3L341.5,255.4z M416.2,257.3h-73.6
				l-36.8,62.9l36.8,62.9h73.6l36.8-62.9L416.2,257.3z"/>
			<polygon class="st1" points="304.7,319.2 379.9,319.2 417.6,383.5 415.9,384.4 378.8,321.1 304.7,321.1 			"/>
			<path class="st1" d="M355.3,279h48.1l24.1,41.1l-24.1,41.1h-48.1l-0.3-0.5l-23.8-40.6L355.3,279z M402.4,280.9h-45.9l-23,39.2
				l23,39.2h45.9l23-39.2L402.4,280.9z"/>
			<polygon class="st1" points="415.9,255.9 417.6,256.8 380.2,320.6 378.6,319.7 			"/>
		</g>
		<g>
			<path class="st1" d="M493.3,255.4h75.8l37.9,64.7l-37.9,64.7h-75.8l-0.3-0.5l-37.6-64.3L493.3,255.4z M568,257.3h-73.6
				l-36.8,62.9l36.8,62.9H568l36.8-62.9L568,257.3z"/>
			<polygon class="st1" points="456.5,319.2 531.7,319.2 569.4,383.5 567.7,384.4 530.6,321.1 456.5,321.1 			"/>
			<path class="st1" d="M507.1,279h48.1l24.1,41.1l-24.1,41.1h-48.1l-0.3-0.5l-23.8-40.6L507.1,279z M554.2,280.9h-45.9l-23,39.2
				l23,39.2h45.9l23-39.2L554.2,280.9z"/>
			<polygon class="st1" points="567.7,255.9 569.4,256.8 532,320.6 530.4,319.7 			"/>
		</g>
		<g>
			<path class="st1" d="M645.1,255.4h75.8l37.9,64.7l-37.9,64.7h-75.8l-0.3-0.5l-37.6-64.3L645.1,255.4z M719.8,257.3h-73.6
				l-36.8,62.9l36.8,62.9h73.6l36.8-62.9L719.8,257.3z"/>
			<polygon class="st1" points="608.3,319.2 683.5,319.2 721.2,383.5 719.5,384.4 682.5,321.1 608.3,321.1 			"/>
			<path class="st1" d="M658.9,279h48.1l24.1,41.1l-24.1,41.1h-48.1l-0.3-0.5l-23.8-40.6L658.9,279z M706,280.9H660l-23,39.2
				l23,39.2H706l23-39.2L706,280.9z"/>
			<polygon class="st1" points="719.5,255.9 721.2,256.8 683.8,320.6 682.2,319.7 			"/>
		</g>
		<g>
			<path class="st1" d="M796.9,255.4h75.8l37.9,64.7l-37.9,64.7h-75.8l-0.3-0.5L759,320.1L796.9,255.4z M871.6,257.3H798l-36.8,62.9
				L798,383h73.6l36.8-62.9L871.6,257.3z"/>
			<polygon class="st1" points="760.1,319.2 835.4,319.2 873,383.5 871.3,384.4 834.3,321.1 760.1,321.1 			"/>
			<path class="st1" d="M810.7,279h48.1l24.1,41.1l-24.1,41.1h-48.1l-0.3-0.5l-23.8-40.6L810.7,279z M857.8,280.9h-45.9l-23,39.2
				l23,39.2h45.9l23-39.2L857.8,280.9z"/>
			<polygon class="st1" points="871.3,255.9 873,256.8 835.6,320.6 834,319.7 			"/>
		</g>
		<g>
			<path class="st1" d="M948.7,255.4h75.8l37.9,64.7l-37.9,64.7h-75.8l-0.3-0.5l-37.6-64.3L948.7,255.4z M1023.4,257.3h-73.6
				L913,320.1l36.8,62.9h73.6l36.8-62.9L1023.4,257.3z"/>
			<polygon class="st1" points="911.9,319.2 987.2,319.2 1024.8,383.5 1023.1,384.4 986.1,321.1 911.9,321.1 			"/>
			<path class="st1" d="M962.6,279h48.1l24.1,41.1l-24.1,41.1h-48.1l-0.3-0.5l-23.8-40.6L962.6,279z M1009.6,280.9h-45.9l-23,39.2
				l23,39.2h45.9l23-39.2L1009.6,280.9z"/>
			<polygon class="st1" points="1023.1,255.9 1024.8,256.8 987.4,320.6 985.8,319.7 			"/>
		</g>
		<g>
			<path class="st1" d="M1100.5,255.4h75.8l37.9,64.7l-37.9,64.7h-75.8l-0.3-0.5l-37.6-64.3L1100.5,255.4z M1175.2,257.3h-73.6
				l-36.8,62.9l36.8,62.9h73.6l36.8-62.9L1175.2,257.3z"/>
			<polygon class="st1" points="1063.7,319.2 1139,319.2 1176.6,383.5 1174.9,384.4 1137.9,321.1 1063.7,321.1 			"/>
			<path class="st1" d="M1114.4,279h48.1l24.1,41.1l-24.1,41.1h-48.1l-0.3-0.5l-23.8-40.6L1114.4,279z M1161.4,280.9h-45.9l-23,39.2
				l23,39.2h45.9l23-39.2L1161.4,280.9z"/>
			<polygon class="st1" points="1174.9,255.9 1176.6,256.8 1139.2,320.6 1137.6,319.7 			"/>
		</g>
		<g>
			<path class="st1" d="M1252.3,255.4h75.8l37.9,64.7l-37.9,64.7h-75.8l-0.3-0.5l-37.6-64.3L1252.3,255.4z M1327,257.3h-73.6
				l-36.8,62.9l36.8,62.9h73.6l36.8-62.9L1327,257.3z"/>
			<polygon class="st1" points="1215.5,319.2 1290.8,319.2 1328.4,383.5 1326.7,384.4 1289.7,321.1 1215.5,321.1 			"/>
			<path class="st1" d="M1266.2,279h48.1l24.1,41.1l-24.1,41.1h-48.1l-0.3-0.5l-23.8-40.6L1266.2,279z M1313.2,280.9h-45.9l-23,39.2
				l23,39.2h45.9l23-39.2L1313.2,280.9z"/>
			<polygon class="st1" points="1326.7,255.9 1328.4,256.8 1291,320.6 1289.4,319.7 			"/>
		</g>
		<g>
			<path class="st1" d="M37.9,383.1h75.8l37.9,64.7l-37.9,64.7H37.9l-0.3-0.5L0,447.9L37.9,383.1z M112.6,385H39L2.2,447.9L39,510.7
				h73.6l36.8-62.9L112.6,385z"/>
			<polygon class="st1" points="1.1,446.9 76.3,446.9 113.9,511.2 112.3,512.1 75.2,448.8 1.1,448.8 			"/>
			<path class="st1" d="M51.7,406.8h48.1l24.1,41.1L99.8,489H51.7l-0.3-0.5l-23.8-40.6L51.7,406.8z M98.7,408.6H52.8l-23,39.2
				l23,39.2h45.9l23-39.2L98.7,408.6z"/>
			<polygon class="st1" points="112.3,383.6 113.9,384.5 76.6,448.3 75,447.4 			"/>
		</g>
		<g>
			<path class="st1" d="M189.7,383.1h75.8l37.9,64.7l-37.9,64.7h-75.8l-0.3-0.5l-37.6-64.3L189.7,383.1z M264.4,385h-73.6L154,447.9
				l36.8,62.9h73.6l36.8-62.9L264.4,385z"/>
			<polygon class="st1" points="152.9,446.9 228.1,446.9 265.7,511.2 264.1,512.1 227,448.8 152.9,448.8 			"/>
			<path class="st1" d="M203.5,406.8h48.1l24.1,41.1L251.6,489h-48.1l-0.3-0.5l-23.8-40.6L203.5,406.8z M250.5,408.6h-45.9l-23,39.2
				l23,39.2h45.9l23-39.2L250.5,408.6z"/>
			<polygon class="st1" points="264.1,383.6 265.7,384.5 228.4,448.3 226.8,447.4 			"/>
		</g>
		<g>
			<path class="st1" d="M341.5,383.1h75.8l37.9,64.7l-37.9,64.7h-75.8l-0.3-0.5l-37.6-64.3L341.5,383.1z M416.2,385h-73.6
				l-36.8,62.9l36.8,62.9h73.6l36.8-62.9L416.2,385z"/>
			<polygon class="st1" points="304.7,446.9 379.9,446.9 417.6,511.2 415.9,512.1 378.8,448.8 304.7,448.8 			"/>
			<path class="st1" d="M355.3,406.8h48.1l24.1,41.1L403.4,489h-48.1l-0.3-0.5l-23.8-40.6L355.3,406.8z M402.4,408.6h-45.9l-23,39.2
				l23,39.2h45.9l23-39.2L402.4,408.6z"/>
			<polygon class="st1" points="415.9,383.6 417.6,384.5 380.2,448.3 378.6,447.4 			"/>
		</g>
		<g>
			<path class="st1" d="M493.3,383.1h75.8l37.9,64.7l-37.9,64.7h-75.8l-0.3-0.5l-37.6-64.3L493.3,383.1z M568,385h-73.6l-36.8,62.9
				l36.8,62.9H568l36.8-62.9L568,385z"/>
			<polygon class="st1" points="456.5,446.9 531.7,446.9 569.4,511.2 567.7,512.1 530.6,448.8 456.5,448.8 			"/>
			<path class="st1" d="M507.1,406.8h48.1l24.1,41.1L555.3,489h-48.1l-0.3-0.5l-23.8-40.6L507.1,406.8z M554.2,408.6h-45.9l-23,39.2
				l23,39.2h45.9l23-39.2L554.2,408.6z"/>
			<polygon class="st1" points="567.7,383.6 569.4,384.5 532,448.3 530.4,447.4 			"/>
		</g>
		<g>
			<path class="st1" d="M645.1,383.1h75.8l37.9,64.7l-37.9,64.7h-75.8l-0.3-0.5l-37.6-64.3L645.1,383.1z M719.8,385h-73.6
				l-36.8,62.9l36.8,62.9h73.6l36.8-62.9L719.8,385z"/>
			<polygon class="st1" points="608.3,446.9 683.5,446.9 721.2,511.2 719.5,512.1 682.5,448.8 608.3,448.8 			"/>
			<path class="st1" d="M658.9,406.8h48.1l24.1,41.1L707.1,489h-48.1l-0.3-0.5l-23.8-40.6L658.9,406.8z M706,408.6H660l-23,39.2
				l23,39.2H706l23-39.2L706,408.6z"/>
			<polygon class="st1" points="719.5,383.6 721.2,384.5 683.8,448.3 682.2,447.4 			"/>
		</g>
		<g>
			<path class="st1" d="M796.9,383.1h75.8l37.9,64.7l-37.9,64.7h-75.8l-0.3-0.5L759,447.9L796.9,383.1z M871.6,385H798l-36.8,62.9
				l36.8,62.9h73.6l36.8-62.9L871.6,385z"/>
			<polygon class="st1" points="760.1,446.9 835.4,446.9 873,511.2 871.3,512.1 834.3,448.8 760.1,448.8 			"/>
			<path class="st1" d="M810.7,406.8h48.1l24.1,41.1L858.9,489h-48.1l-0.3-0.5l-23.8-40.6L810.7,406.8z M857.8,408.6h-45.9l-23,39.2
				l23,39.2h45.9l23-39.2L857.8,408.6z"/>
			<polygon class="st1" points="871.3,383.6 873,384.5 835.6,448.3 834,447.4 			"/>
		</g>
		<g>
			<path class="st1" d="M948.7,383.1h75.8l37.9,64.7l-37.9,64.7h-75.8l-0.3-0.5l-37.6-64.3L948.7,383.1z M1023.4,385h-73.6
				L913,447.9l36.8,62.9h73.6l36.8-62.9L1023.4,385z"/>
			<polygon class="st1" points="911.9,446.9 987.2,446.9 1024.8,511.2 1023.1,512.1 986.1,448.8 911.9,448.8 			"/>
			<path class="st1" d="M962.6,406.8h48.1l24.1,41.1l-24.1,41.1h-48.1l-0.3-0.5l-23.8-40.6L962.6,406.8z M1009.6,408.6h-45.9
				l-23,39.2l23,39.2h45.9l23-39.2L1009.6,408.6z"/>
			<polygon class="st1" points="1023.1,383.6 1024.8,384.5 987.4,448.3 985.8,447.4 			"/>
		</g>
		<g>
			<path class="st1" d="M1100.5,383.1h75.8l37.9,64.7l-37.9,64.7h-75.8l-0.3-0.5l-37.6-64.3L1100.5,383.1z M1175.2,385h-73.6
				l-36.8,62.9l36.8,62.9h73.6l36.8-62.9L1175.2,385z"/>
			<polygon class="st1" points="1063.7,446.9 1139,446.9 1176.6,511.2 1174.9,512.1 1137.9,448.8 1063.7,448.8 			"/>
			<path class="st1" d="M1114.4,406.8h48.1l24.1,41.1l-24.1,41.1h-48.1l-0.3-0.5l-23.8-40.6L1114.4,406.8z M1161.4,408.6h-45.9
				l-23,39.2l23,39.2h45.9l23-39.2L1161.4,408.6z"/>
			<polygon class="st1" points="1174.9,383.6 1176.6,384.5 1139.2,448.3 1137.6,447.4 			"/>
		</g>
		<g>
			<path class="st1" d="M1252.3,383.1h75.8l37.9,64.7l-37.9,64.7h-75.8l-0.3-0.5l-37.6-64.3L1252.3,383.1z M1327,385h-73.6
				l-36.8,62.9l36.8,62.9h73.6l36.8-62.9L1327,385z"/>
			<polygon class="st1" points="1215.5,446.9 1290.8,446.9 1328.4,511.2 1326.7,512.1 1289.7,448.8 1215.5,448.8 			"/>
			<path class="st1" d="M1266.2,406.8h48.1l24.1,41.1l-24.1,41.1h-48.1l-0.3-0.5l-23.8-40.6L1266.2,406.8z M1313.2,408.6h-45.9
				l-23,39.2l23,39.2h45.9l23-39.2L1313.2,408.6z"/>
			<polygon class="st1" points="1326.7,383.6 1328.4,384.5 1291,448.3 1289.4,447.4 			"/>
		</g>
		<g>
			<path class="st1" d="M37.9,510.8h75.8l37.9,64.7l-37.9,64.7H37.9l-0.3-0.5L0,575.6L37.9,510.8z M112.6,512.7H39L2.2,575.6
				L39,638.4h73.6l36.8-62.9L112.6,512.7z"/>
			<polygon class="st1" points="1.1,574.6 76.3,574.6 113.9,638.9 112.3,639.8 75.2,576.5 1.1,576.5 			"/>
			<path class="st1" d="M51.7,534.5h48.1l24.1,41.1l-24.1,41.1H51.7l-0.3-0.5l-23.8-40.6L51.7,534.5z M98.7,536.3H52.8l-23,39.2
				l23,39.2h45.9l23-39.2L98.7,536.3z"/>
			<polygon class="st1" points="112.3,511.3 113.9,512.2 76.6,576 75,575.1 			"/>
		</g>
		<g>
			<path class="st1" d="M189.7,510.8h75.8l37.9,64.7l-37.9,64.7h-75.8l-0.3-0.5l-37.6-64.3L189.7,510.8z M264.4,512.7h-73.6
				L154,575.6l36.8,62.9h73.6l36.8-62.9L264.4,512.7z"/>
			<polygon class="st1" points="152.9,574.6 228.1,574.6 265.7,638.9 264.1,639.8 227,576.5 152.9,576.5 			"/>
			<path class="st1" d="M203.5,534.5h48.1l24.1,41.1l-24.1,41.1h-48.1l-0.3-0.5l-23.8-40.6L203.5,534.5z M250.5,536.3h-45.9
				l-23,39.2l23,39.2h45.9l23-39.2L250.5,536.3z"/>
			<polygon class="st1" points="264.1,511.3 265.7,512.2 228.4,576 226.8,575.1 			"/>
		</g>
		<g>
			<path class="st1" d="M341.5,510.8h75.8l37.9,64.7l-37.9,64.7h-75.8l-0.3-0.5l-37.6-64.3L341.5,510.8z M416.2,512.7h-73.6
				l-36.8,62.9l36.8,62.9h73.6l36.8-62.9L416.2,512.7z"/>
			<polygon class="st1" points="304.7,574.6 379.9,574.6 417.6,638.9 415.9,639.8 378.8,576.5 304.7,576.5 			"/>
			<path class="st1" d="M355.3,534.5h48.1l24.1,41.1l-24.1,41.1h-48.1l-0.3-0.5l-23.8-40.6L355.3,534.5z M402.4,536.3h-45.9
				l-23,39.2l23,39.2h45.9l23-39.2L402.4,536.3z"/>
			<polygon class="st1" points="415.9,511.3 417.6,512.2 380.2,576 378.6,575.1 			"/>
		</g>
		<g>
			<path class="st1" d="M493.3,510.8h75.8l37.9,64.7l-37.9,64.7h-75.8l-0.3-0.5l-37.6-64.3L493.3,510.8z M568,512.7h-73.6
				l-36.8,62.9l36.8,62.9H568l36.8-62.9L568,512.7z"/>
			<polygon class="st1" points="456.5,574.6 531.7,574.6 569.4,638.9 567.7,639.8 530.6,576.5 456.5,576.5 			"/>
			<path class="st1" d="M507.1,534.5h48.1l24.1,41.1l-24.1,41.1h-48.1l-0.3-0.5l-23.8-40.6L507.1,534.5z M554.2,536.3h-45.9
				l-23,39.2l23,39.2h45.9l23-39.2L554.2,536.3z"/>
			<polygon class="st1" points="567.7,511.3 569.4,512.2 532,576 530.4,575.1 			"/>
		</g>
		<g>
			<path class="st1" d="M645.1,510.8h75.8l37.9,64.7l-37.9,64.7h-75.8l-0.3-0.5l-37.6-64.3L645.1,510.8z M719.8,512.7h-73.6
				l-36.8,62.9l36.8,62.9h73.6l36.8-62.9L719.8,512.7z"/>
			<polygon class="st1" points="608.3,574.6 683.5,574.6 721.2,638.9 719.5,639.8 682.5,576.5 608.3,576.5 			"/>
			<path class="st1" d="M658.9,534.5h48.1l24.1,41.1l-24.1,41.1h-48.1l-0.3-0.5l-23.8-40.6L658.9,534.5z M706,536.3H660l-23,39.2
				l23,39.2H706l23-39.2L706,536.3z"/>
			<polygon class="st1" points="719.5,511.3 721.2,512.2 683.8,576 682.2,575.1 			"/>
		</g>
		<g>
			<path class="st1" d="M796.9,510.8h75.8l37.9,64.7l-37.9,64.7h-75.8l-0.3-0.5L759,575.6L796.9,510.8z M871.6,512.7H798l-36.8,62.9
				l36.8,62.9h73.6l36.8-62.9L871.6,512.7z"/>
			<polygon class="st1" points="760.1,574.6 835.4,574.6 873,638.9 871.3,639.8 834.3,576.5 760.1,576.5 			"/>
			<path class="st1" d="M810.7,534.5h48.1l24.1,41.1l-24.1,41.1h-48.1l-0.3-0.5l-23.8-40.6L810.7,534.5z M857.8,536.3h-45.9
				l-23,39.2l23,39.2h45.9l23-39.2L857.8,536.3z"/>
			<polygon class="st1" points="871.3,511.3 873,512.2 835.6,576 834,575.1 			"/>
		</g>
		<g>
			<path class="st1" d="M948.7,510.8h75.8l37.9,64.7l-37.9,64.7h-75.8l-0.3-0.5l-37.6-64.3L948.7,510.8z M1023.4,512.7h-73.6
				L913,575.6l36.8,62.9h73.6l36.8-62.9L1023.4,512.7z"/>
			<polygon class="st1" points="911.9,574.6 987.2,574.6 1024.8,638.9 1023.1,639.8 986.1,576.5 911.9,576.5 			"/>
			<path class="st1" d="M962.6,534.5h48.1l24.1,41.1l-24.1,41.1h-48.1l-0.3-0.5l-23.8-40.6L962.6,534.5z M1009.6,536.3h-45.9
				l-23,39.2l23,39.2h45.9l23-39.2L1009.6,536.3z"/>
			<polygon class="st1" points="1023.1,511.3 1024.8,512.2 987.4,576 985.8,575.1 			"/>
		</g>
		<g>
			<path class="st1" d="M1100.5,510.8h75.8l37.9,64.7l-37.9,64.7h-75.8l-0.3-0.5l-37.6-64.3L1100.5,510.8z M1175.2,512.7h-73.6
				l-36.8,62.9l36.8,62.9h73.6l36.8-62.9L1175.2,512.7z"/>
			<polygon class="st1" points="1063.7,574.6 1139,574.6 1176.6,638.9 1174.9,639.8 1137.9,576.5 1063.7,576.5 			"/>
			<path class="st1" d="M1114.4,534.5h48.1l24.1,41.1l-24.1,41.1h-48.1l-0.3-0.5l-23.8-40.6L1114.4,534.5z M1161.4,536.3h-45.9
				l-23,39.2l23,39.2h45.9l23-39.2L1161.4,536.3z"/>
			<polygon class="st1" points="1174.9,511.3 1176.6,512.2 1139.2,576 1137.6,575.1 			"/>
		</g>
		<g>
			<path class="st1" d="M1252.3,510.8h75.8l37.9,64.7l-37.9,64.7h-75.8l-0.3-0.5l-37.6-64.3L1252.3,510.8z M1327,512.7h-73.6
				l-36.8,62.9l36.8,62.9h73.6l36.8-62.9L1327,512.7z"/>
			<polygon class="st1" points="1215.5,574.6 1290.8,574.6 1328.4,638.9 1326.7,639.8 1289.7,576.5 1215.5,576.5 			"/>
			<path class="st1" d="M1266.2,534.5h48.1l24.1,41.1l-24.1,41.1h-48.1l-0.3-0.5l-23.8-40.6L1266.2,534.5z M1313.2,536.3h-45.9
				l-23,39.2l23,39.2h45.9l23-39.2L1313.2,536.3z"/>
			<polygon class="st1" points="1326.7,511.3 1328.4,512.2 1291,576 1289.4,575.1 			"/>
		</g>
		<g>
			<path class="st1" d="M37.9,638.5h75.8l37.9,64.7L113.7,768H37.9l-0.3-0.5L0,703.3L37.9,638.5z M112.6,640.4H39L2.2,703.3
				L39,766.1h73.6l36.8-62.9L112.6,640.4z"/>
			<polygon class="st1" points="1.1,702.3 76.3,702.3 113.9,766.6 112.3,767.5 75.2,704.2 1.1,704.2 			"/>
			<path class="st1" d="M51.7,662.2h48.1l24.1,41.1l-24.1,41.1H51.7l-0.3-0.5l-23.8-40.6L51.7,662.2z M98.7,664H52.8l-23,39.2
				l23,39.2h45.9l23-39.2L98.7,664z"/>
			<polygon class="st1" points="112.3,639 113.9,639.9 76.6,703.7 75,702.8 			"/>
		</g>
		<g>
			<path class="st1" d="M189.7,638.5h75.8l37.9,64.7L265.5,768h-75.8l-0.3-0.5l-37.6-64.3L189.7,638.5z M264.4,640.4h-73.6
				L154,703.3l36.8,62.9h73.6l36.8-62.9L264.4,640.4z"/>
			<polygon class="st1" points="152.9,702.3 228.1,702.3 265.7,766.6 264.1,767.5 227,704.2 152.9,704.2 			"/>
			<path class="st1" d="M203.5,662.2h48.1l24.1,41.1l-24.1,41.1h-48.1l-0.3-0.5l-23.8-40.6L203.5,662.2z M250.5,664h-45.9l-23,39.2
				l23,39.2h45.9l23-39.2L250.5,664z"/>
			<polygon class="st1" points="264.1,639 265.7,639.9 228.4,703.7 226.8,702.8 			"/>
		</g>
		<g>
			<path class="st1" d="M341.5,638.5h75.8l37.9,64.7L417.3,768h-75.8l-0.3-0.5l-37.6-64.3L341.5,638.5z M416.2,640.4h-73.6
				l-36.8,62.9l36.8,62.9h73.6l36.8-62.9L416.2,640.4z"/>
			<polygon class="st1" points="304.7,702.3 379.9,702.3 417.6,766.6 415.9,767.5 378.8,704.2 304.7,704.2 			"/>
			<path class="st1" d="M355.3,662.2h48.1l24.1,41.1l-24.1,41.1h-48.1l-0.3-0.5l-23.8-40.6L355.3,662.2z M402.4,664h-45.9l-23,39.2
				l23,39.2h45.9l23-39.2L402.4,664z"/>
			<polygon class="st1" points="415.9,639 417.6,639.9 380.2,703.7 378.6,702.8 			"/>
		</g>
		<g>
			<path class="st1" d="M493.3,638.5h75.8l37.9,64.7L569.1,768h-75.8l-0.3-0.5l-37.6-64.3L493.3,638.5z M568,640.4h-73.6l-36.8,62.9
				l36.8,62.9H568l36.8-62.9L568,640.4z"/>
			<polygon class="st1" points="456.5,702.3 531.7,702.3 569.4,766.6 567.7,767.5 530.6,704.2 456.5,704.2 			"/>
			<path class="st1" d="M507.1,662.2h48.1l24.1,41.1l-24.1,41.1h-48.1l-0.3-0.5l-23.8-40.6L507.1,662.2z M554.2,664h-45.9l-23,39.2
				l23,39.2h45.9l23-39.2L554.2,664z"/>
			<polygon class="st1" points="567.7,639 569.4,639.9 532,703.7 530.4,702.8 			"/>
		</g>
		<g>
			<path class="st1" d="M645.1,638.5h75.8l37.9,64.7L720.9,768h-75.8l-0.3-0.5l-37.6-64.3L645.1,638.5z M719.8,640.4h-73.6
				l-36.8,62.9l36.8,62.9h73.6l36.8-62.9L719.8,640.4z"/>
			<polygon class="st1" points="608.3,702.3 683.5,702.3 721.2,766.6 719.5,767.5 682.5,704.2 608.3,704.2 			"/>
			<path class="st1" d="M658.9,662.2h48.1l24.1,41.1l-24.1,41.1h-48.1l-0.3-0.5l-23.8-40.6L658.9,662.2z M706,664H660l-23,39.2
				l23,39.2H706l23-39.2L706,664z"/>
			<polygon class="st1" points="719.5,639 721.2,639.9 683.8,703.7 682.2,702.8 			"/>
		</g>
		<g>
			<path class="st1" d="M796.9,638.5h75.8l37.9,64.7L872.7,768h-75.8l-0.3-0.5L759,703.3L796.9,638.5z M871.6,640.4H798l-36.8,62.9
				l36.8,62.9h73.6l36.8-62.9L871.6,640.4z"/>
			<polygon class="st1" points="760.1,702.3 835.4,702.3 873,766.6 871.3,767.5 834.3,704.2 760.1,704.2 			"/>
			<path class="st1" d="M810.7,662.2h48.1l24.1,41.1l-24.1,41.1h-48.1l-0.3-0.5l-23.8-40.6L810.7,662.2z M857.8,664h-45.9l-23,39.2
				l23,39.2h45.9l23-39.2L857.8,664z"/>
			<polygon class="st1" points="871.3,639 873,639.9 835.6,703.7 834,702.8 			"/>
		</g>
		<g>
			<path class="st1" d="M948.7,638.5h75.8l37.9,64.7l-37.9,64.7h-75.8l-0.3-0.5l-37.6-64.3L948.7,638.5z M1023.4,640.4h-73.6
				L913,703.3l36.8,62.9h73.6l36.8-62.9L1023.4,640.4z"/>
			<polygon class="st1" points="911.9,702.3 987.2,702.3 1024.8,766.6 1023.1,767.5 986.1,704.2 911.9,704.2 			"/>
			<path class="st1" d="M962.6,662.2h48.1l24.1,41.1l-24.1,41.1h-48.1l-0.3-0.5l-23.8-40.6L962.6,662.2z M1009.6,664h-45.9l-23,39.2
				l23,39.2h45.9l23-39.2L1009.6,664z"/>
			<polygon class="st1" points="1023.1,639 1024.8,639.9 987.4,703.7 985.8,702.8 			"/>
		</g>
		<g>
			<path class="st1" d="M1100.5,638.5h75.8l37.9,64.7l-37.9,64.7h-75.8l-0.3-0.5l-37.6-64.3L1100.5,638.5z M1175.2,640.4h-73.6
				l-36.8,62.9l36.8,62.9h73.6l36.8-62.9L1175.2,640.4z"/>
			<polygon class="st1" points="1063.7,702.3 1139,702.3 1176.6,766.6 1174.9,767.5 1137.9,704.2 1063.7,704.2 			"/>
			<path class="st1" d="M1114.4,662.2h48.1l24.1,41.1l-24.1,41.1h-48.1l-0.3-0.5l-23.8-40.6L1114.4,662.2z M1161.4,664h-45.9
				l-23,39.2l23,39.2h45.9l23-39.2L1161.4,664z"/>
			<polygon class="st1" points="1174.9,639 1176.6,639.9 1139.2,703.7 1137.6,702.8 			"/>
		</g>
		<g>
			<path class="st1" d="M1252.3,638.5h75.8l37.9,64.7l-37.9,64.7h-75.8l-0.3-0.5l-37.6-64.3L1252.3,638.5z M1327,640.4h-73.6
				l-36.8,62.9l36.8,62.9h73.6l36.8-62.9L1327,640.4z"/>
			<polygon class="st1" points="1215.5,702.3 1290.8,702.3 1328.4,766.6 1326.7,767.5 1289.7,704.2 1215.5,704.2 			"/>
			<path class="st1" d="M1266.2,662.2h48.1l24.1,41.1l-24.1,41.1h-48.1l-0.3-0.5l-23.8-40.6L1266.2,662.2z M1313.2,664h-45.9
				l-23,39.2l23,39.2h45.9l23-39.2L1313.2,664z"/>
			<polygon class="st1" points="1326.7,639 1328.4,639.9 1291,703.7 1289.4,702.8 			"/>
		</g>
	</g>
</g>
</svg>
